<svg width="24" height="24" viewBox="0 0 24 24" fill="none" xmlns="http://www.w3.org/2000/svg">
<path d="M22 6V8.42C22 10 21 11 19.42 11H16V4.01C16 2.9 16.91 2 18.02 2C19.11 2.01 20.11 2.45 20.83 3.17C21.55 3.9 22 4.9 22 6Z" stroke="black" stroke-width="1.5" stroke-miterlimit="10" stroke-linecap="round" stroke-linejoin="round"/>
<path d="M22 6V8.42C22 10 21 11 19.42 11H16V4.01C16 2.9 16.91 2 18.02 2C19.11 2.01 20.11 2.45 20.83 3.17C21.55 3.9 22 4.9 22 6Z" stroke="url(#paint0_linear_442:1407)" stroke-width="1.5" stroke-miterlimit="10" stroke-linecap="round" stroke-linejoin="round"/>
<path d="M2 7V21C2 21.83 2.94 22.3 3.6 21.8L5.31 20.52C5.71 20.22 6.27 20.26 6.63 20.62L8.29 22.29C8.68 22.68 9.32 22.68 9.71 22.29L11.39 20.61C11.74 20.26 12.3 20.22 12.69 20.52L14.4 21.8C15.06 22.29 16 21.82 16 21V4C16 2.9 16.9 2 18 2H7H6C3 2 2 3.79 2 6V7Z" stroke="black" stroke-width="1.5" stroke-miterlimit="10" stroke-linecap="round" stroke-linejoin="round"/>
<path d="M2 7V21C2 21.83 2.94 22.3 3.6 21.8L5.31 20.52C5.71 20.22 6.27 20.26 6.63 20.62L8.29 22.29C8.68 22.68 9.32 22.68 9.71 22.29L11.39 20.61C11.74 20.26 12.3 20.22 12.69 20.52L14.4 21.8C15.06 22.29 16 21.82 16 21V4C16 2.9 16.9 2 18 2H7H6C3 2 2 3.79 2 6V7Z" stroke="url(#paint1_linear_442:1407)" stroke-width="1.5" stroke-miterlimit="10" stroke-linecap="round" stroke-linejoin="round"/>
<path d="M9 13.01H12" stroke="black" stroke-width="1.5" stroke-linecap="round" stroke-linejoin="round"/>
<path d="M9 13.01H12" stroke="url(#paint2_linear_442:1407)" stroke-width="1.5" stroke-linecap="round" stroke-linejoin="round"/>
<path d="M9 9.01001H12" stroke="black" stroke-width="1.5" stroke-linecap="round" stroke-linejoin="round"/>
<path d="M9 9.01001H12" stroke="url(#paint3_linear_442:1407)" stroke-width="1.5" stroke-linecap="round" stroke-linejoin="round"/>
<circle cx="6" cy="9" r="1" fill="black"/>
<circle cx="6" cy="9" r="1" fill="url(#paint4_linear_442:1407)"/>
<circle cx="6" cy="13" r="1" fill="black"/>
<circle cx="6" cy="13" r="1" fill="url(#paint5_linear_442:1407)"/>
<defs>
<linearGradient id="paint0_linear_442:1407" x1="18.7857" y1="2.37768" x2="15.0496" y2="9.77163" gradientUnits="userSpaceOnUse">
<stop stop-color="#7BDA6C"/>
<stop offset="1" stop-color="#48C297"/>
</linearGradient>
<linearGradient id="paint1_linear_442:1407" x1="9.42858" y1="2.86372" x2="1.68425" y2="20.7348" gradientUnits="userSpaceOnUse">
<stop stop-color="#7BDA6C"/>
<stop offset="1" stop-color="#48C297"/>
</linearGradient>
<linearGradient id="paint2_linear_442:1407" x1="10.3929" y1="13.052" x2="10.2785" y2="14.0704" gradientUnits="userSpaceOnUse">
<stop stop-color="#7BDA6C"/>
<stop offset="1" stop-color="#48C297"/>
</linearGradient>
<linearGradient id="paint3_linear_442:1407" x1="10.3929" y1="9.05197" x2="10.2785" y2="10.0704" gradientUnits="userSpaceOnUse">
<stop stop-color="#7BDA6C"/>
<stop offset="1" stop-color="#48C297"/>
</linearGradient>
<linearGradient id="paint4_linear_442:1407" x1="5.92857" y1="8.08393" x2="5.30456" y2="9.93635" gradientUnits="userSpaceOnUse">
<stop stop-color="#7BDA6C"/>
<stop offset="1" stop-color="#48C297"/>
</linearGradient>
<linearGradient id="paint5_linear_442:1407" x1="5.92857" y1="12.0839" x2="5.30456" y2="13.9363" gradientUnits="userSpaceOnUse">
<stop stop-color="#7BDA6C"/>
<stop offset="1" stop-color="#48C297"/>
</linearGradient>
</defs>
</svg>
