<svg width="26" height="26" viewBox="0 0 26 26" fill="none" xmlns="http://www.w3.org/2000/svg">
<path d="M23.1888 8.27024L17.7288 2.81125C17.061 2.14399 16.2724 2.44715 15.6051 3.11594L14.9983 3.72532C13.6714 5.05223 13.5957 6.68992 13.5043 7.9559C13.4591 8.57746 13.0077 9.35492 12.5644 9.79824L2.97482 19.3817C2.14455 20.2109 2.33041 21.3835 3.16424 22.2173L3.78224 22.8353C4.61303 23.6656 5.78455 23.8591 6.61888 23.0252L16.2079 13.4377C16.6517 12.9939 17.4267 12.5465 18.0508 12.4973C19.3137 12.4028 21.0276 12.251 22.2788 10.9997L22.8851 10.3934C23.5529 9.72613 23.8561 8.9375 23.1888 8.27024V8.27024Z" stroke="#424650" stroke-width="2" stroke-miterlimit="10"/>
<path d="M14.6758 4.11328L21.8867 11.3242" stroke="#424650" stroke-width="2" stroke-miterlimit="10" stroke-linecap="round"/>
</svg>
