<svg width="28" height="28" viewBox="0 0 28 28" fill="none" xmlns="http://www.w3.org/2000/svg">
<path d="M8.90909 25.4545H3.81818C3.48063 25.4545 3.15691 25.3205 2.91823 25.0818C2.67954 24.8431 2.54545 24.5194 2.54545 24.1818V19.0909C2.54545 18.7534 2.41136 18.4296 2.17268 18.191C1.934 17.9523 1.61028 17.8182 1.27273 17.8182C0.935179 17.8182 0.611456 17.9523 0.372773 18.191C0.13409 18.4296 0 18.7534 0 19.0909V24.1818C0 25.1945 0.402272 26.1656 1.11832 26.8817C1.83437 27.5977 2.80554 28 3.81818 28H8.90909C9.24664 28 9.57036 27.8659 9.80904 27.6272C10.0477 27.3885 10.1818 27.0648 10.1818 26.7273C10.1818 26.3897 10.0477 26.066 9.80904 25.8273C9.57036 25.5886 9.24664 25.4545 8.90909 25.4545ZM26.7273 17.8182C26.3897 17.8182 26.066 17.9523 25.8273 18.191C25.5886 18.4296 25.4545 18.7534 25.4545 19.0909V24.1818C25.4545 24.5194 25.3205 24.8431 25.0818 25.0818C24.8431 25.3205 24.5194 25.4545 24.1818 25.4545H19.0909C18.7534 25.4545 18.4296 25.5886 18.191 25.8273C17.9523 26.066 17.8182 26.3897 17.8182 26.7273C17.8182 27.0648 17.9523 27.3885 18.191 27.6272C18.4296 27.8659 18.7534 28 19.0909 28H24.1818C25.1945 28 26.1656 27.5977 26.8817 26.8817C27.5977 26.1656 28 25.1945 28 24.1818V19.0909C28 18.7534 27.8659 18.4296 27.6272 18.191C27.3885 17.9523 27.0648 17.8182 26.7273 17.8182ZM24.1818 0H19.0909C18.7534 0 18.4296 0.13409 18.191 0.372773C17.9523 0.611456 17.8182 0.935179 17.8182 1.27273C17.8182 1.61028 17.9523 1.934 18.191 2.17268C18.4296 2.41136 18.7534 2.54545 19.0909 2.54545H24.1818C24.5194 2.54545 24.8431 2.67954 25.0818 2.91823C25.3205 3.15691 25.4545 3.48063 25.4545 3.81818V8.90909C25.4545 9.24664 25.5886 9.57036 25.8273 9.80904C26.066 10.0477 26.3897 10.1818 26.7273 10.1818C27.0648 10.1818 27.3885 10.0477 27.6272 9.80904C27.8659 9.57036 28 9.24664 28 8.90909V3.81818C28 2.80554 27.5977 1.83437 26.8817 1.11832C26.1656 0.402272 25.1945 0 24.1818 0ZM1.27273 10.1818C1.61028 10.1818 1.934 10.0477 2.17268 9.80904C2.41136 9.57036 2.54545 9.24664 2.54545 8.90909V3.81818C2.54545 3.48063 2.67954 3.15691 2.91823 2.91823C3.15691 2.67954 3.48063 2.54545 3.81818 2.54545H8.90909C9.24664 2.54545 9.57036 2.41136 9.80904 2.17268C10.0477 1.934 10.1818 1.61028 10.1818 1.27273C10.1818 0.935179 10.0477 0.611456 9.80904 0.372773C9.57036 0.13409 9.24664 0 8.90909 0H3.81818C2.80554 0 1.83437 0.402272 1.11832 1.11832C0.402272 1.83437 0 2.80554 0 3.81818V8.90909C0 9.24664 0.13409 9.57036 0.372773 9.80904C0.611456 10.0477 0.935179 10.1818 1.27273 10.1818ZM11.4545 5.09091H6.36364C6.02609 5.09091 5.70236 5.225 5.46368 5.46368C5.225 5.70236 5.09091 6.02609 5.09091 6.36364V11.4545C5.09091 11.7921 5.225 12.1158 5.46368 12.3545C5.70236 12.5932 6.02609 12.7273 6.36364 12.7273H11.4545C11.7921 12.7273 12.1158 12.5932 12.3545 12.3545C12.5932 12.1158 12.7273 11.7921 12.7273 11.4545V6.36364C12.7273 6.02609 12.5932 5.70236 12.3545 5.46368C12.1158 5.225 11.7921 5.09091 11.4545 5.09091ZM10.1818 10.1818H7.63636V7.63636H10.1818V10.1818ZM16.5455 12.7273H21.6364C21.9739 12.7273 22.2976 12.5932 22.5363 12.3545C22.775 12.1158 22.9091 11.7921 22.9091 11.4545V6.36364C22.9091 6.02609 22.775 5.70236 22.5363 5.46368C22.2976 5.225 21.9739 5.09091 21.6364 5.09091H16.5455C16.2079 5.09091 15.8842 5.225 15.6455 5.46368C15.4068 5.70236 15.2727 6.02609 15.2727 6.36364V11.4545C15.2727 11.7921 15.4068 12.1158 15.6455 12.3545C15.8842 12.5932 16.2079 12.7273 16.5455 12.7273ZM17.8182 7.63636H20.3636V10.1818H17.8182V7.63636ZM11.4545 15.2727H6.36364C6.02609 15.2727 5.70236 15.4068 5.46368 15.6455C5.225 15.8842 5.09091 16.2079 5.09091 16.5455V21.6364C5.09091 21.9739 5.225 22.2976 5.46368 22.5363C5.70236 22.775 6.02609 22.9091 6.36364 22.9091H11.4545C11.7921 22.9091 12.1158 22.775 12.3545 22.5363C12.5932 22.2976 12.7273 21.9739 12.7273 21.6364V16.5455C12.7273 16.2079 12.5932 15.8842 12.3545 15.6455C12.1158 15.4068 11.7921 15.2727 11.4545 15.2727ZM10.1818 20.3636H7.63636V17.8182H10.1818V20.3636ZM16.5455 19.0909C16.883 19.0909 17.2067 18.9568 17.4454 18.7181C17.6841 18.4795 17.8182 18.1557 17.8182 17.8182C18.1557 17.8182 18.4795 17.6841 18.7181 17.4454C18.9568 17.2067 19.0909 16.883 19.0909 16.5455C19.0909 16.2079 18.9568 15.8842 18.7181 15.6455C18.4795 15.4068 18.1557 15.2727 17.8182 15.2727H16.5455C16.2079 15.2727 15.8842 15.4068 15.6455 15.6455C15.4068 15.8842 15.2727 16.2079 15.2727 16.5455V17.8182C15.2727 18.1557 15.4068 18.4795 15.6455 18.7181C15.8842 18.9568 16.2079 19.0909 16.5455 19.0909ZM21.6364 15.2727C21.2988 15.2727 20.9751 15.4068 20.7364 15.6455C20.4977 15.8842 20.3636 16.2079 20.3636 16.5455V20.3636C20.0261 20.3636 19.7024 20.4977 19.4637 20.7364C19.225 20.9751 19.0909 21.2988 19.0909 21.6364C19.0909 21.9739 19.225 22.2976 19.4637 22.5363C19.7024 22.775 20.0261 22.9091 20.3636 22.9091H21.6364C21.9739 22.9091 22.2976 22.775 22.5363 22.5363C22.775 22.2976 22.9091 21.9739 22.9091 21.6364V16.5455C22.9091 16.2079 22.775 15.8842 22.5363 15.6455C22.2976 15.4068 21.9739 15.2727 21.6364 15.2727ZM16.5455 20.3636C16.2937 20.3636 16.0477 20.4383 15.8384 20.5781C15.6291 20.718 15.4659 20.9168 15.3696 21.1493C15.2733 21.3819 15.2481 21.6378 15.2972 21.8847C15.3463 22.1315 15.4675 22.3583 15.6455 22.5363C15.8235 22.7143 16.0503 22.8355 16.2972 22.8846C16.544 22.9337 16.7999 22.9085 17.0325 22.8122C17.2651 22.7159 17.4638 22.5528 17.6037 22.3435C17.7435 22.1342 17.8182 21.8881 17.8182 21.6364C17.8182 21.2988 17.6841 20.9751 17.4454 20.7364C17.2067 20.4977 16.883 20.3636 16.5455 20.3636Z" fill="white"/>
</svg>
