<svg width="28" height="28" viewBox="0 0 28 28" fill="none" xmlns="http://www.w3.org/2000/svg">
<path d="M2.41523 5.36667C3.34856 1.33001 9.42689 1.33001 10.3486 5.36667C10.8969 7.73501 9.39189 9.74167 8.08523 10.99C7.12856 11.9 5.62356 11.8883 4.66689 10.99C3.37189 9.74167 1.86689 7.73501 2.41523 5.36667Z" stroke="#BBBCCE" stroke-width="2"/>
<path d="M17.5817 19.3667C18.515 15.33 24.6283 15.33 25.5617 19.3667C26.11 21.735 24.605 23.7417 23.2867 24.99C22.33 25.9 20.8133 25.8883 19.8567 24.99C18.5383 23.7417 17.0333 21.735 17.5817 19.3667Z" stroke="#BBBCCE" stroke-width="2"/>
<path d="M14 5.83331H17.1266C19.285 5.83331 20.2883 8.50498 18.6666 9.92831L9.34498 18.0833C7.72331 19.495 8.72664 22.1666 10.8733 22.1666H14" stroke="#BBBCCE" stroke-width="2" stroke-linecap="round" stroke-linejoin="round"/>
<path d="M6.40034 6.41665H6.41382" stroke="#BBBCCE" stroke-width="2" stroke-linecap="round" stroke-linejoin="round"/>
<path d="M21.5673 20.4166H21.5808" stroke="#BBBCCE" stroke-width="2" stroke-linecap="round" stroke-linejoin="round"/>
</svg>
